<?xml version="1.0" encoding="utf-8"?>
<!-- Generator: Adobe Illustrator 24.0.0, SVG Export Plug-In . SVG Version: 6.00 Build 0)  -->
<svg version="1.1" id="Layer_1" xmlns="http://www.w3.org/2000/svg" xmlns:xlink="http://www.w3.org/1999/xlink" x="0px" y="0px"
	 viewBox="0 0 512 512" style="enable-background:new 0 0 512 512;" xml:space="preserve">
<style type="text/css">
	.st0{fill:#FFFFFF;}
	.st1{fill:#C82333;stroke:#FFFFFF;stroke-miterlimit:10;}
</style>
<path class="st1" d="M375.5,251.2l-110,51.1l0.2,183.4L477,266.3l-87-21.8L375.5,251.2z M121.6,244.3l-84.7,21.8L246.5,486V302.4
	l-109.9-51.1L121.6,244.3z M285,35.4L369,125c19.1,20.3,38.1,40.6,57.2,60.9l58.7,62.7l-91.6-22.9C357.2,162.3,321.1,98.8,285,35.4z
	 M256,26L137.5,231l118.5,55L374.6,231L256,26z M254.8,234.5c-11.7,0-19.9-4.1-24.6-12.3c-4.7-8.2-7.1-19.8-7.1-35
	c0-15.1,2.4-26.8,7.1-35c4.7-8.2,12.9-12.3,24.6-12.3c11.7,0,19.9,4.1,24.6,12.3c4.7,8.2,7.1,19.9,7.1,35c0,15.1-2.4,26.8-7.1,35
	C274.7,230.4,266.5,234.5,254.8,234.5L254.8,234.5z M265.3,162.7c1.7,5.3,2.5,13.5,2.5,24.5c0,10.5-0.8,18.6-2.5,24.2
	c-1.7,5.6-5.2,8.4-10.5,8.3c-5.4,0-8.9-2.8-10.6-8.3c-1.7-5.5-2.6-13.6-2.6-24.2c0-11.1,0.9-19.2,2.6-24.5c1.7-5.3,5.3-8,10.6-8
	C260.1,154.7,263.6,157.3,265.3,162.7L265.3,162.7z M129.1,225.7l-91.6,22.9L96.2,186c19.1-20.3,38.1-40.6,57.2-60.9l83.9-89.6
	C201.3,98.8,165.2,162.3,129.1,225.7z"/>
</svg>
