<?xml version="1.0" encoding="utf-8"?>
<!-- Generator: Adobe Illustrator 24.0.0, SVG Export Plug-In . SVG Version: 6.00 Build 0)  -->
<svg version="1.1" id="Layer_1" xmlns="http://www.w3.org/2000/svg" xmlns:xlink="http://www.w3.org/1999/xlink" x="0px" y="0px"
	 viewBox="0 0 512 512" style="enable-background:new 0 0 512 512;" xml:space="preserve">
<style type="text/css">
	.st0{fill:#C82333;}
</style>
<path class="st0" d="M450.2,181.4l-70.5-97.1l-114.1-37V140l96.4,70L450.2,181.4z M246.6,140V47.3l-114.1,37L62,181.4l88.2,28.6
	L246.6,140z M198.6,333.6h115l35.5-109.4l-93-67.6l-93,67.6L198.6,333.6z M287.9,238.5c-1.7-1.9-4.2-3-6.8-2.8c-4,0-6.8,1.5-8.2,4.5
	c-1,2.7-1.5,5.5-1.5,8.3h-12.9c0.2-5.7,1.3-10.4,3.1-13.9c3.5-6.7,9.8-10.1,18.9-10.1c7.2,0,12.8,2,17.1,6c4.2,4,6.3,9.2,6.2,15.6
	c0.1,4.8-1.5,9.5-4.5,13.3c-2.8,3.3-6,6.2-9.7,8.6l-5.3,3.8c-3.3,2.4-5.6,4.1-6.8,5.1c-1.2,1.1-2.3,2.3-3.1,3.7h29.5v11.7h-46.2
	c0.1-4.6,1.1-9.1,3.1-13.3c1.9-4.5,6.4-9.3,13.4-14.3c4.2-2.8,8.2-6,11.9-9.4c2.6-2.6,4.1-6,4.1-9.7
	C290.4,243,289.5,240.5,287.9,238.5L287.9,238.5z M208.2,236.7c2.9-0.1,5.9-0.3,8.8-0.8c2.5-0.5,4.8-1.7,6.5-3.6
	c1.2-1.4,2.1-3,2.6-4.8c0.3-0.9,0.5-1.8,0.5-2.7h11.1v67.5h-13.6v-46.6h-15.9L208.2,236.7L208.2,236.7z M196.5,352.7l-54.4,75
	l114.1,37l114.1-37l-54.4-75H196.5z M367.8,228.1L331,341.4l54.5,75l70.5-97V199.5L367.8,228.1z M144.2,228.1L56,199.5v119.9
	l70.5,97l54.5-75L144.2,228.1z"/>
</svg>
