<?xml version="1.0" encoding="utf-8"?>
<!-- Generator: Adobe Illustrator 24.0.0, SVG Export Plug-In . SVG Version: 6.00 Build 0)  -->
<svg version="1.1" id="Layer_1" xmlns="http://www.w3.org/2000/svg" xmlns:xlink="http://www.w3.org/1999/xlink" x="0px" y="0px"
	 viewBox="0 0 512 512" style="enable-background:new 0 0 512 512;" xml:space="preserve">
<style type="text/css">
	.st0{fill:#FFFFFF;}
	.st1{fill:#C82333;}
</style>
<path class="st1" d="M248,20.3L72.3,132.6l175.7-3.8V20.3z M264,20.3v108.5l175.7,3.8L264,20.3z M241.9,144.9L55.4,149l71.2,192.9
	L241.9,144.9z M270.1,144.9l115.3,197L456.6,149L270.1,144.9z M256,152.4L138.9,352.6h234.2L256,152.4z M379.5,181.2
	c-7.1-0.1-4.4,10-3.3,14.5c3.5,11.5,7.3,26.6,18.9,30c6.8-1.2,4.4-12.8,3.7-16.5C394.1,198.3,391.7,185.9,379.5,181.2L379.5,181.2z
	 M52,186v173.2l61.9-5.7L52,186z M460,186l-61.9,167.5l61.9,5.7V186z M130.1,214.1c-2.4,5.1-4.1,10.3-2.7,15.9
	c1.7,8.8,13.5,6.4,15.6-0.8c2.7-5,3.9-11.7-0.5-15.7C138.4,210.1,133.6,210.7,130.1,214.1L130.1,214.1z M271.9,280.9
	c0.6,10.5,1.7,22.8,9.7,28.2c4.9,1.8,9.7-2.2,11.1-6.7c1.9-6.3,2.3-12.9,2.4-19.4c-0.2-7.1-1.5-15-6.7-20.1
	C276.2,258.5,273.1,273.8,271.9,280.9z M76.8,299.2c-4.1,4.7-2.3,12.8-0.4,18.4c1.1,5.5,6.9,10.2,6.1,1.6
	C83.2,308.1,80.1,306.5,76.8,299.2z M143.2,368.6L256,491.7l112.8-123.1H143.2z M121.8,368.9L68,373.8l75.7,48.4l65.1,41.7
	L121.8,368.9z M390.2,368.9c0,0-44.5,50.1-46.7,51l-40.3,44L444,373.8L390.2,368.9z"/>
</svg>
