<?xml version="1.0" encoding="utf-8"?>
<!-- Generator: Adobe Illustrator 24.0.0, SVG Export Plug-In . SVG Version: 6.00 Build 0)  -->
<svg version="1.1" id="Layer_1" xmlns="http://www.w3.org/2000/svg" xmlns:xlink="http://www.w3.org/1999/xlink" x="0px" y="0px"
	 viewBox="0 0 512 512" style="enable-background:new 0 0 512 512;" xml:space="preserve">
<style type="text/css">
	.st0{fill:#FFFFFF;}
	.st1{fill:#C82333;}
</style>
<path class="st1" d="M255.7,44.8c-6.2,0-12.4,1.4-17.1,4.2L85.8,137.3c-9.6,5.5-9.6,14.3,0,19.8l152.8,88.4c9.6,5.5,24.7,5.5,34.3,0
	l152.8-88.4c9.6-5.5,9.6-14.3,0-19.8L272.8,48.9C268.1,46.1,261.9,44.8,255.7,44.8L255.7,44.8z M238.7,87.3l22.8,14.3
	c-6.7,1-12.6,2.3-17.5,3.8c-5,1.5-9.3,3.3-12.9,5.5c-7.7,4.6-11.1,9.9-10.1,15.8c0.9,5.9,6.2,12.2,15.9,19.2
	c0.3-3.5,1.5-6.7,3.6-9.6c2.1-2.9,5.2-5.6,9.2-8.1c10.3-6.2,22.3-8.8,35.9-8c13.7,0.8,26.6,5,38.5,12.5c13.2,8.3,20.3,17,21.3,26.3
	c0.9,9.2-4.6,17.3-16.4,24.5c-13.1,7.8-28.6,10.5-46.6,8.1c-18-2.5-37-10-56.9-22.4c-20.4-12.8-32.3-25.3-35.5-37.6
	c-3.3-12.3,2.3-22.9,16.9-31.7c4.6-2.8,9.6-5.2,14.8-7.3C227,90.5,232.7,88.7,238.7,87.3L238.7,87.3z M277.4,140.5
	c-4.2,0-8,1-11.4,3.1c-4.5,2.7-6.1,5.9-4.8,9.6c1.3,3.6,5.6,7.6,12.9,12.2s13.8,7.2,19.7,8.2c5.9,0.9,11.1-0.1,15.6-2.8
	c4.6-2.7,6.2-5.9,4.9-9.5c-1.4-3.6-5.6-7.7-12.9-12.2c-7.2-4.5-13.8-7.2-19.7-8.1C280.2,140.6,278.8,140.5,277.4,140.5L277.4,140.5z
	 M435.9,173.8c-1.9,0.1-4.2,0.9-7,2.4L282,261.1c-9.6,5.5-17.1,18.6-17.1,29.7v157.7c0,11,7.6,15.4,17.1,9.9l146.9-84.8
	c9.6-5.5,17.1-18.6,17.1-29.7V186.1C443.6,178.1,440.8,173.6,435.9,173.8L435.9,173.8z M76.1,174.3c-6.2,0-10,5.3-10.2,11.8v157.7
	c0,11.1,7.6,24.2,17.1,29.7L230,458.4c9.6,5.5,17.1,1.2,17.1-9.9V290.8c0-11.1-7.6-24.2-17.1-29.7L83.1,176.2
	C80.5,174.9,78.2,174.3,76.1,174.3L76.1,174.3z M362.7,275.2l-27.2,73.3l27.2-16.3V275.2L362.7,275.2z"/>
</svg>
