<?xml version="1.0" encoding="utf-8"?>
<!-- Generator: Adobe Illustrator 24.0.0, SVG Export Plug-In . SVG Version: 6.00 Build 0)  -->
<svg version="1.1" id="Layer_1" xmlns="http://www.w3.org/2000/svg" xmlns:xlink="http://www.w3.org/1999/xlink" x="0px" y="0px"
	 viewBox="0 0 512 512" style="enable-background:new 0 0 512 512;" xml:space="preserve">
<style type="text/css">
	.st0{fill:#FFFFFF;}
	.st1{fill:#C82333;}
</style>
<path class="st0" d="M0,0h512v512H0V0z"/>
<path class="st1" d="M107.4,28c-7.5,0.1-15.5,2.6-21.1,5.3c-13,6.3-26.1,18.1-36.6,32.4c-10.5,14.3-18.5,31-21.9,46.3
	c-3.4,15.3-2.2,28.8,3.7,38.1L120.7,268c-0.3-1.7-0.6-3.4-0.9-5.1c-4.6-30.3,1-64.5,17.4-96c16.4-31.5,40.7-54.6,67.3-66.5
	c9.3-4.1,18.9-6.9,28.5-8.2l-110-60.4C117.8,29.3,112.7,28.1,107.4,28L107.4,28z M245.5,110c-11-0.1-22.5,2.4-33.8,7.5
	c-22.7,10.2-44.4,30.5-59.1,58.7c-14.7,28.2-19.4,58.6-15.5,84.4c3.9,25.8,16.1,46.8,35.4,58.2c11.2,6.6,23.7,9.4,36.7,8.5
	c-5.2-12.7-9.3-25.7-9.8-39.3c10.3-20,20.8-39.9,35.7-59.9c22.9-7.2,47.1-4.5,75-3.4c3.7-16.6,4.3-33,2.1-47.9
	c-3.9-25.8-16.1-46.8-35.4-58.2C267.2,112.9,256.6,110.1,245.5,110L245.5,110z M317,242.3l-67.5,3.9l18.4,61.8l66.3-3.7
	C331.7,282.9,323.9,262.7,317,242.3L317,242.3z M236.3,257.5c-7.9,9.8-14.5,20.3-17.8,32.9c1.8,19.2,4.1,38.4,14.2,56.7l18.4-30.1
	L236.3,257.5z M410.1,317.4c-24.6,11.3-43.7,23.4-62.8,35.6l70.9,55.7l67.9-48.4C463.4,345.2,438.4,330.7,410.1,317.4L410.1,317.4z
	 M327.7,323.6l-62.1,2.9l-18.4,29.7c19.7-1,38.3,0.7,59.7-4.5C317.3,342.3,321.7,332.9,327.7,323.6L327.7,323.6z M342.6,372.2
	c-5,19.2-5.3,39.3-5.7,59.4c17.2,23.7,40.4,36.6,61.9,52.4l8.7-62.2L342.6,372.2z M485,381.4l-59,42.5l-8.9,56.5
	c19.4-11.6,37.8-24.4,52.6-41.6C478,419.7,481.2,400.5,485,381.4z"/>
</svg>
