<?xml version="1.0" encoding="utf-8"?>
<!-- Generator: Adobe Illustrator 24.0.0, SVG Export Plug-In . SVG Version: 6.00 Build 0)  -->
<svg version="1.1" id="Layer_1" xmlns="http://www.w3.org/2000/svg" xmlns:xlink="http://www.w3.org/1999/xlink" x="0px" y="0px"
	 viewBox="0 0 512 512" style="enable-background:new 0 0 512 512;" xml:space="preserve">
<style type="text/css">
	.st0{fill:#C82333;stroke:#FFFFFF;stroke-miterlimit:10;}
</style>
<path class="st0" d="M375.5,251.2l-110,51.1l0.2,183.4L477,266.3l-87-21.8L375.5,251.2z M121.6,244.3l-84.7,21.8L246.5,486V302.4
	l-109.9-51.1L121.6,244.3z M285,35.4l84,89.6c19.1,20.3,38.1,40.6,57.2,60.9l58.7,62.7l-91.6-22.9C357.2,162.3,321.1,98.8,285,35.4z
	 M256,26L137.5,231L256,286l118.6-55L256,26z M286.5,187.2 M254.8,139.9 M230.2,152.2 M223.1,187.2 M254.8,234.5 M129.1,225.7
	l-91.6,22.9L96.2,186c19.1-20.3,38.1-40.6,57.2-60.9l83.9-89.6C201.3,98.8,165.2,162.3,129.1,225.7z"/>
</svg>
