<?xml version="1.0" encoding="utf-8"?>
<!-- Generator: Adobe Illustrator 24.0.0, SVG Export Plug-In . SVG Version: 6.00 Build 0)  -->
<svg version="1.1" id="Layer_1" xmlns="http://www.w3.org/2000/svg" xmlns:xlink="http://www.w3.org/1999/xlink" x="0px" y="0px"
	 viewBox="0 0 512 512" style="enable-background:new 0 0 512 512;" xml:space="preserve">
<style type="text/css">
	.st0{fill:#FFFFFF;}
	.st1{fill:#C82333;stroke:#FFFFFF;stroke-miterlimit:10;}
</style>
<path class="st1" d="M375.5,251.2l-110,51.1l0.2,183.4L477,266.3l-87-21.8L375.5,251.2z M121.6,244.3l-84.7,21.8L246.5,486V302.4
	l-109.9-51.1L121.6,244.3z M285,35.4l84,89.6c19.1,20.3,38.1,40.6,57.2,60.9l58.7,62.7l-91.6-22.9C357.2,162.3,321.1,98.8,285,35.4z
	 M256,26L137.5,231L256,286l118.6-55L256,26z M129.1,225.7l-91.6,22.9L96.2,186c19.1-20.3,38.1-40.6,57.2-60.9l83.9-89.6
	C201.3,98.8,165.2,162.3,129.1,225.7z M290.2,230.1c-9.1,0-15.5-3.2-19.2-9.6s-5.5-15.4-5.5-27.3c0-11.8,1.9-20.9,5.5-27.3
	s10-9.6,19.2-9.6c9.1,0,15.5,3.2,19.2,9.6s5.5,15.5,5.5,27.3c0,11.8-1.9,20.9-5.5,27.3S299.3,230.1,290.2,230.1L290.2,230.1z
	 M298.4,174.2c1.3,4.1,1.9,10.5,1.9,19.1c0,8.2-0.6,14.5-1.9,18.8c-1.3,4.4-4,6.5-8.2,6.5c-4.2,0-6.9-2.2-8.3-6.5
	c-1.3-4.3-2-10.6-2-18.8c0-8.6,0.7-15,2-19.1c1.3-4.1,4.1-6.2,8.3-6.2S297,170,298.4,174.2L298.4,174.2z M221.8,230.1
	c-9.1,0-15.5-3.2-19.2-9.6c-3.7-6.4-5.5-15.4-5.5-27.3c0-11.8,1.9-20.9,5.5-27.3s10-9.6,19.2-9.6c9.1,0,15.5,3.2,19.2,9.6
	c3.7,6.4,5.5,15.5,5.5,27.3c0,11.8-1.9,20.9-5.5,27.3C237.3,227,230.9,230.1,221.8,230.1L221.8,230.1z M230,174.2
	c1.3,4.1,1.9,10.5,1.9,19.1c0,8.2-0.6,14.5-1.9,18.8c-1.3,4.4-4,6.5-8.2,6.5c-4.2,0-6.9-2.2-8.3-6.5c-1.3-4.3-2-10.6-2-18.8
	c0-8.6,0.7-15,2-19.1c1.3-4.1,4.1-6.2,8.3-6.2S228.7,170,230,174.2L230,174.2z"/>
</svg>
