<?xml version="1.0" encoding="utf-8"?>
<!-- Generator: Adobe Illustrator 24.0.0, SVG Export Plug-In . SVG Version: 6.00 Build 0)  -->
<svg version="1.1" id="Layer_1" xmlns="http://www.w3.org/2000/svg" xmlns:xlink="http://www.w3.org/1999/xlink" x="0px" y="0px"
	 viewBox="0 0 512 512" style="enable-background:new 0 0 512 512;" xml:space="preserve">
<style type="text/css">
	.st0{fill:#C82333;}
</style>
<path class="st0" d="M450.2,181.4l-70.5-97.1l-114.1-37V140l96.4,70L450.2,181.4z M246.6,140V47.3l-114.1,37L62,181.4l88.2,28.6
	L246.6,140z M198.6,333.6h115l35.5-109.4l-93-67.6l-93,67.6L198.6,333.6z M196.5,352.7l-54.4,75l114.1,37l114.1-37l-54.4-75H196.5z
	 M367.8,228.1L331,341.4l54.5,75l70.5-97V199.5L367.8,228.1z M144.2,228.1L56,199.5v119.9l70.5,97l54.5-75L144.2,228.1z"/>
</svg>
