<?xml version="1.0" encoding="utf-8"?>
<!-- Generator: Adobe Illustrator 24.0.0, SVG Export Plug-In . SVG Version: 6.00 Build 0)  -->
<svg version="1.1" id="Layer_1" xmlns="http://www.w3.org/2000/svg" xmlns:xlink="http://www.w3.org/1999/xlink" x="0px" y="0px"
	 viewBox="0 0 512 512" style="enable-background:new 0 0 512 512;" xml:space="preserve">
<style type="text/css">
	.st0{fill:#FFFFFF;}
	.st1{fill:#C82333;}
</style>
<path class="st1" d="M256,37.1L77.9,343.9h356.2L256,37.1z M230.2,49.8L72,164.2v157.9L230.2,49.8z M281.8,49.8L440,322.1V164.2
	L281.8,49.8z M256.1,203.9c8.4,0,14.7,1.5,19.1,4.6c4.4,3,6.5,7.5,6.5,13.3c0,3.9-1.1,7.2-3.2,9.8c-2.1,2.6-5.3,4.6-9.5,5.8
	c4.7,1.3,8.2,3.4,10.6,6.4c2.4,2.9,3.6,6.6,3.6,11c0,6.9-2.3,12-6.9,15.6c-4.5,3.5-11.3,5.2-20.2,5.2c-9,0-15.8-1.7-20.4-5.2
	c-4.6-3.5-6.9-8.7-6.9-15.6c0-4.4,1.2-8.1,3.6-11c2.4-2.9,6-5.1,10.7-6.4c-4.2-1.3-7.4-3.2-9.5-5.8c-2.1-2.6-3.2-5.9-3.2-9.8
	c0-5.8,2.2-10.3,6.5-13.3S247.6,203.9,256.1,203.9L256.1,203.9z M256.1,215.1c-2.8,0-5,0.7-6.6,2.2c-1.5,1.5-2.3,3.6-2.3,6.3
	c0,2.8,0.8,4.9,2.3,6.3c1.5,1.5,3.7,2.2,6.6,2.2c2.8,0,4.9-0.7,6.4-2.2c1.5-1.5,2.3-3.6,2.3-6.3c0-2.8-0.8-4.9-2.3-6.3
	C261,215.8,258.9,215.1,256.1,215.1L256.1,215.1z M256.1,243.3c-3.3,0-5.9,0.9-7.7,2.7c-1.8,1.8-2.7,4.4-2.7,7.8
	c0,3.4,0.9,6,2.7,7.8c1.8,1.8,4.4,2.7,7.7,2.7c3.3,0,5.8-0.9,7.6-2.7c1.8-1.8,2.6-4.4,2.6-7.8c0-3.4-0.9-6-2.6-7.8
	C261.9,244.2,259.4,243.3,256.1,243.3L256.1,243.3z M88.7,359.9L256,480.9l167.3-121.1H88.7z"/>
</svg>
